<?xml version="1.0" encoding="UTF-8"?>
<svg id="Layer_1" xmlns="http://www.w3.org/2000/svg" version="1.1" viewBox="0 0 228.29 43.02">
  <!-- Generator: Adobe Illustrator 29.7.1, SVG Export Plug-In . SVG Version: 2.1.1 Build 8)  -->
  <defs>
    <style>
      .st0 {
        stroke: #fff;
        stroke-miterlimit: 10;
        stroke-width: .5px;
      }

      .st0, .st1 {
        fill: #fff;
      }
    </style>
  </defs>
  <g id="Foreground">
    <g>
      <path class="st1" d="M93.78,35.93c0,.96,0,1.75.05,2.17.03.29.09.51.39.55.14.02.36.04.45.04.06,0,.08.03.08.06,0,.05-.05.08-.16.08-.55,0-1.18-.03-1.23-.03s-.68.03-.98.03c-.11,0-.16-.02-.16-.08,0-.03.02-.06.08-.06.09,0,.21-.02.3-.04.2-.04.25-.26.29-.55.05-.42.05-1.21.05-2.17v-4.23l-1.48.02c-.62,0-.86.08-1.02.32-.11.17-.14.24-.17.31-.03.08-.06.1-.1.1-.03,0-.05-.03-.05-.09,0-.1.2-.96.22-1.04.02-.06.06-.19.1-.19.07,0,.17.1.44.12.29.03.67.05.79.05h3.75c.32,0,.55-.02.71-.05.15-.02.24-.05.28-.05.05,0,.05.06.05.12,0,.3-.03.99-.03,1.1,0,.09-.03.13-.07.13-.05,0-.07-.03-.08-.17v-.11c-.04-.3-.28-.53-1.24-.55l-1.26-.02s0,4.23,0,4.23Z"/>
      <path class="st1" d="M104.31,35.93c0,.96,0,1.75.05,2.17.03.29.09.51.39.55.14.02.36.04.45.04.06,0,.08.03.08.06,0,.05-.05.08-.16.08-.55,0-1.18-.03-1.23-.03s-.68.03-.98.03c-.11,0-.16-.02-.16-.08,0-.03.02-.06.08-.06.09,0,.21-.02.3-.04.2-.04.25-.26.29-.55.05-.42.05-1.21.05-2.17v-1.05s-.03-.06-.06-.06h-4.24s-.06,0-.06.06v1.05c0,.96,0,1.75.05,2.17.03.29.09.51.39.55.14.02.36.04.45.04.06,0,.08.03.08.06,0,.05-.05.08-.16.08-.55,0-1.18-.03-1.23-.03s-.68.03-.98.03c-.11,0-.16-.02-.16-.08,0-.03.02-.06.08-.06.09,0,.21-.02.3-.04.2-.04.25-.26.29-.55.05-.42.05-1.21.05-2.17v-1.76c0-1.56,0-1.84-.02-2.16-.02-.34-.1-.5-.43-.57-.08-.02-.25-.03-.34-.03-.04,0-.08-.02-.08-.06,0-.06.05-.08.16-.08.45,0,1.08.03,1.13.03s.68-.03.98-.03c.11,0,.16.02.16.08,0,.04-.04.06-.08.06-.07,0-.13,0-.25.03-.27.05-.35.22-.37.57-.02.32-.02.6-.02,2.16v.21s.03.06.06.06h4.24s.06,0,.06-.06v-.21c0-1.56,0-1.84-.02-2.16-.02-.34-.1-.5-.43-.57-.08-.02-.25-.03-.34-.03-.04,0-.08-.02-.08-.06,0-.06.05-.08.16-.08.45,0,1.08.03,1.13.03s.68-.03.98-.03c.11,0,.16.02.16.08,0,.04-.04.06-.08.06-.07,0-.13,0-.25.03-.27.05-.35.22-.37.57-.02.32-.02.6-.02,2.16,0,0,0,1.76,0,1.76Z"/>
      <path class="st1" d="M107.29,34.17c0-1.56,0-1.84-.02-2.16-.02-.34-.1-.5-.43-.57-.08-.02-.25-.03-.34-.03-.04,0-.08-.02-.08-.06,0-.06.05-.08.16-.08h.72l.41.02h2.29c.19,0,.35-.03.43-.05.05,0,.09-.05.14-.05.03,0,.04.04.04.09,0,.07-.05.19-.08.47,0,.1-.03.54-.05.66,0,.05-.03.11-.07.11-.06,0-.08-.05-.08-.13,0-.07-.01-.24-.06-.36-.07-.16-.17-.28-.71-.34-.17-.02-1.26-.03-1.37-.03-.04,0-.06.03-.06.1v2.76c0,.07,0,.1.06.1.13,0,1.36,0,1.59-.02.24-.02.38-.04.47-.14.07-.08.11-.13.15-.13.03,0,.05.02.05.08s-.05.23-.08.56c-.02.2-.04.57-.04.64,0,.08,0,.19-.07.19-.05,0-.07-.04-.07-.09,0-.1,0-.2-.04-.33-.04-.14-.13-.31-.52-.35-.27-.03-1.26-.05-1.43-.05-.05,0-.07.03-.07.07v2.59c.03.69.18.82,1.16.82.26,0,.7,0,.96-.11s.38-.31.45-.72c.02-.11.04-.15.09-.15.06,0,.06.08.06.15,0,.08-.08.76-.13.97-.07.26-.15.26-.54.26-.75,0-1.3-.02-1.69-.03-.39-.02-.63-.03-.78-.03h-.4c-.2,0-.43.02-.58.02-.11,0-.16-.02-.16-.08,0-.03.02-.06.08-.06.09,0,.21-.02.3-.04.2-.04.25-.26.29-.55.05-.42.05-1.21.05-2.17v-1.76h0Z"/>
      <path class="st1" d="M115.26,34.17c0-1.56,0-1.84-.02-2.16-.02-.34-.1-.5-.43-.57-.08-.02-.25-.03-.34-.03-.04,0-.08-.02-.08-.06,0-.06.05-.08.16-.08.45,0,1.06.03,1.15.03s.69-.03.99-.03c.11,0,.16.02.16.08,0,.04-.04.06-.08.06-.07,0-.13,0-.25.03-.27.04-.35.22-.37.57-.02.32-.02.6-.02,2.16v1.4c0,1.44.32,2.06.75,2.47.49.46.94.55,1.51.55.61,0,1.21-.29,1.57-.72.46-.57.58-1.42.58-2.45v-1.25c0-1.56,0-1.84-.02-2.16-.02-.34-.1-.5-.43-.57-.08-.02-.25-.03-.34-.03-.04,0-.08-.02-.08-.06,0-.06.05-.08.16-.08.45,0,1,.03,1.06.03.07,0,.54-.03.84-.03.11,0,.16.02.16.08,0,.04-.04.06-.08.06-.07,0-.13,0-.25.03-.27.06-.35.22-.37.57-.02.32-.02.6-.02,2.16v1.07c0,1.08-.12,2.28-.92,2.99-.72.64-1.47.74-2.06.74-.34,0-1.35-.04-2.06-.71-.49-.47-.87-1.17-.87-2.63v-1.46h0Z"/>
      <path class="st1" d="M123.78,37.47c.02.82.12,1.08.39,1.16.19.05.41.06.5.06.05,0,.08.02.08.06,0,.06-.06.08-.18.08-.57,0-.97-.03-1.06-.03s-.51.03-.96.03c-.1,0-.16,0-.16-.08,0-.04.03-.06.08-.06.08,0,.26,0,.41-.06.25-.07.3-.36.3-1.27v-5.73c0-.39.04-.5.12-.5s.25.22.35.32c.15.17,1.64,1.78,3.18,3.43.99,1.06,2.08,2.28,2.4,2.61l-.11-5.08c0-.65-.08-.87-.39-.95-.18-.04-.41-.05-.49-.05-.07,0-.08-.03-.08-.07,0-.06.08-.07.2-.07.45,0,.93.03,1.04.03s.44-.03.85-.03c.11,0,.18,0,.18.07,0,.04-.04.07-.11.07-.05,0-.12,0-.24.03-.33.07-.37.29-.37.89l-.02,5.86c0,.66-.02.71-.09.71-.08,0-.2-.11-.73-.64-.11-.1-1.55-1.57-2.61-2.71-1.16-1.25-2.29-2.51-2.61-2.87,0,0,.13,4.79.13,4.79Z"/>
      <path class="st1" d="M133.27,35.93c0,.96,0,1.75.05,2.17.03.29.09.51.39.55.14.02.36.04.45.04.06,0,.08.03.08.06,0,.05-.05.08-.16.08-.55,0-1.18-.03-1.23-.03s-.68.03-.98.03c-.11,0-.16-.02-.16-.08,0-.03.02-.06.08-.06.09,0,.21-.02.3-.04.2-.04.25-.26.29-.55.05-.42.05-1.21.05-2.17v-1.76c0-1.56,0-1.84-.02-2.16-.02-.34-.12-.51-.34-.56-.11-.03-.24-.04-.31-.04-.04,0-.08-.02-.08-.06,0-.06.05-.08.16-.08.33,0,.96.03,1.01.03s.68-.03.98-.03c.11,0,.16.02.16.08,0,.04-.04.06-.08.06-.07,0-.13,0-.25.03-.27.05-.35.22-.37.57-.02.32-.02.6-.02,2.16v1.76h0Z"/>
      <path class="st1" d="M138.91,37.61c.58-1.34,1.92-4.83,2.14-5.55.05-.15.09-.29.09-.38,0-.08-.03-.18-.13-.23-.12-.04-.27-.04-.38-.04-.06,0-.11,0-.11-.06s.06-.08.22-.08c.4,0,.86.03.98.03.06,0,.49-.03.78-.03.11,0,.17.02.17.07s-.04.07-.12.07c-.07,0-.29,0-.48.12-.13.09-.28.26-.55.94-.11.28-.61,1.48-1.12,2.71-.61,1.46-1.06,2.54-1.29,3.03-.28.6-.32.76-.42.76-.12,0-.17-.14-.36-.62l-2.45-6.13c-.22-.56-.37-.67-.72-.77-.15-.04-.32-.04-.38-.04s-.08-.03-.08-.07c0-.06.1-.07.26-.07.48,0,1.05.03,1.17.03.1,0,.55-.03.93-.03.18,0,.27.02.27.07s-.03.07-.1.07c-.11,0-.29,0-.38.05-.11.05-.13.13-.13.2,0,.13.12.44.27.83l1.92,5.12h0Z"/>
      <path class="st1" d="M144.17,34.17c0-1.56,0-1.84-.02-2.16-.02-.34-.1-.5-.43-.57-.08-.02-.25-.03-.34-.03-.04,0-.08-.02-.08-.06,0-.06.05-.08.16-.08h.72l.41.02h2.29c.19,0,.35-.03.43-.05.05,0,.09-.05.14-.05.03,0,.04.04.04.09,0,.07-.05.19-.08.47,0,.1-.03.54-.05.66,0,.05-.03.11-.07.11-.06,0-.08-.05-.08-.13,0-.07,0-.24-.06-.36-.07-.16-.17-.28-.71-.34-.17-.02-1.26-.03-1.37-.03-.04,0-.06.03-.06.1v2.76c0,.07,0,.1.06.1.13,0,1.36,0,1.59-.02.24-.02.38-.04.47-.14.07-.08.11-.13.15-.13.03,0,.05.02.05.08s-.05.23-.08.56c-.02.2-.04.57-.04.64,0,.08,0,.19-.07.19-.05,0-.07-.04-.07-.09,0-.1,0-.2-.04-.33-.04-.14-.13-.31-.52-.35-.27-.03-1.26-.05-1.43-.05-.05,0-.07.03-.07.07v2.59c.03.69.18.82,1.16.82.26,0,.7,0,.96-.11s.38-.31.45-.72c.02-.11.04-.15.09-.15.06,0,.06.08.06.15,0,.08-.08.76-.13.97-.07.26-.15.26-.54.26-.75,0-1.3-.02-1.69-.03-.39-.02-.63-.03-.78-.03h-.4c-.2,0-.43.02-.58.02-.11,0-.16-.02-.16-.08,0-.03.02-.06.08-.06.09,0,.21-.02.3-.04.2-.04.25-.26.29-.55.05-.42.05-1.21.05-2.17v-1.76h0Z"/>
      <path class="st1" d="M149.65,34.17c0-1.56,0-1.84-.02-2.16-.02-.34-.1-.5-.43-.57-.08-.02-.25-.03-.34-.03-.04,0-.08-.02-.08-.06,0-.06.05-.08.16-.08.45,0,1.08.03,1.13.03.11,0,.87-.03,1.18-.03.63,0,1.3.06,1.83.44.25.18.69.67.69,1.36,0,.74-.31,1.48-1.21,2.31.82,1.05,1.5,1.94,2.08,2.56.54.57.97.68,1.22.72.19.03.33.03.39.03.05,0,.09.03.09.06,0,.06-.06.08-.24.08h-.71c-.56,0-.81-.05-1.07-.19-.43-.23-.78-.72-1.35-1.47-.42-.55-.89-1.22-1.09-1.48-.04-.04-.07-.06-.13-.06l-1.23-.02s-.07.03-.07.08v.24c0,.96,0,1.75.05,2.17.03.29.09.51.39.55.14.02.36.04.45.04.06,0,.08.03.08.06,0,.05-.05.08-.16.08-.55,0-1.18-.03-1.23-.03,0,0-.64.03-.94.03-.11,0-.16-.02-.16-.08,0-.03.02-.06.08-.06.09,0,.21-.02.3-.04.2-.04.25-.26.29-.55.05-.42.05-1.21.05-2.17v-1.76h0ZM150.45,35.04s.02.09.07.12c.15.09.61.16,1.05.16.24,0,.52-.03.75-.19.35-.24.61-.78.61-1.54,0-1.25-.66-2-1.73-2-.3,0-.57.03-.67.06-.05.02-.08.06-.08.12v3.27Z"/>
      <path class="st1" d="M156.82,38.7c-.14-.07-.15-.11-.15-.38,0-.5.04-.9.05-1.06.01-.11.03-.16.08-.16.06,0,.07.03.07.11,0,.09,0,.23.03.37.15.74.81,1.02,1.48,1.02.96,0,1.43-.69,1.43-1.33,0-.69-.29-1.09-1.15-1.8l-.45-.37c-1.06-.87-1.3-1.49-1.3-2.17,0-1.07.8-1.8,2.07-1.8.39,0,.68.04.93.1.19.04.27.05.35.05s.1.02.1.07-.04.38-.04,1.06c0,.16-.02.23-.07.23-.06,0-.07-.05-.08-.13,0-.12-.07-.39-.13-.5s-.33-.53-1.25-.53c-.69,0-1.23.43-1.23,1.16,0,.57.26.93,1.22,1.68l.28.22c1.18.93,1.46,1.55,1.46,2.35,0,.41-.16,1.17-.85,1.66-.43.3-.97.42-1.51.42-.47,0-.93-.07-1.34-.27Z"/>
      <path class="st1" d="M163.31,35.93c0,.96,0,1.75.05,2.17.03.29.09.51.39.55.14.02.36.04.45.04.06,0,.08.03.08.06,0,.05-.05.08-.16.08-.55,0-1.18-.03-1.23-.03s-.68.03-.98.03c-.11,0-.16-.02-.16-.08,0-.03.02-.06.08-.06.09,0,.21-.02.3-.04.2-.04.25-.26.29-.55.05-.42.05-1.21.05-2.17v-1.76c0-1.56,0-1.84-.02-2.16-.02-.34-.12-.51-.34-.56-.11-.03-.24-.04-.31-.04-.04,0-.08-.02-.08-.06,0-.06.05-.08.16-.08.33,0,.96.03,1.01.03s.68-.03.98-.03c.11,0,.16.02.16.08,0,.04-.04.06-.08.06-.07,0-.13,0-.25.03-.27.05-.35.22-.37.57-.02.32-.02.6-.02,2.16v1.76h0Z"/>
      <path class="st1" d="M168.59,35.93c0,.96,0,1.75.05,2.17.03.29.09.51.39.55.14.02.36.04.45.04.06,0,.08.03.08.06,0,.05-.05.08-.16.08-.55,0-1.18-.03-1.23-.03s-.68.03-.98.03c-.11,0-.16-.02-.16-.08,0-.03.02-.06.08-.06.09,0,.21-.02.3-.04.2-.04.25-.26.29-.55.05-.42.05-1.21.05-2.17v-4.23l-1.48.02c-.62,0-.86.08-1.02.32-.11.17-.14.24-.17.31-.03.08-.06.1-.1.1-.03,0-.05-.03-.05-.09,0-.1.2-.96.22-1.04.02-.06.06-.19.1-.19.07,0,.17.1.44.12.29.03.67.05.79.05h3.75c.32,0,.55-.02.71-.05.15-.02.24-.05.28-.05.05,0,.05.06.05.12,0,.3-.03.99-.03,1.1,0,.09-.03.13-.07.13-.05,0-.07-.03-.08-.17v-.11c-.04-.3-.28-.53-1.24-.55l-1.26-.02s0,4.23,0,4.23Z"/>
      <path class="st1" d="M174.79,36.24c0-.54-.1-.76-.23-1.05-.07-.16-1.41-2.36-1.76-2.88-.25-.37-.5-.62-.68-.74-.15-.1-.34-.16-.43-.16-.05,0-.1-.02-.1-.07,0-.04.04-.07.13-.07.19,0,.94.03.99.03.07,0,.45-.03.84-.03.11,0,.13.03.13.07s-.06.05-.15.09c-.08.04-.13.1-.13.18,0,.12.05.24.13.39.16.29,1.66,2.87,1.84,3.16.19-.42,1.46-2.61,1.66-2.94.13-.21.17-.38.17-.51,0-.14-.04-.25-.16-.28-.09-.03-.15-.05-.15-.1,0-.04.06-.06.16-.06.26,0,.58.03.66.03.06,0,.78-.03.97-.03.07,0,.13.02.13.06,0,.05-.05.08-.13.08-.11,0-.3.04-.46.14-.2.12-.31.24-.53.51-.33.4-1.73,2.75-1.91,3.18-.15.36-.15.67-.15,1v.86c0,.16,0,.58.03,1,.02.29.11.51.41.55.14.02.36.04.45.04.06,0,.08.03.08.06,0,.05-.05.08-.16.08-.55,0-1.18-.03-1.23-.03s-.68.03-.98.03c-.11,0-.16-.02-.16-.08,0-.03.02-.06.08-.06.09,0,.21-.02.3-.04.2-.04.29-.26.31-.55.03-.42.03-.84.03-1v-.86h0Z"/>
      <path class="st1" d="M185.47,31.13c2.25,0,3.93,1.42,3.93,3.75s-1.58,4.09-3.99,4.09c-2.74,0-3.88-2.13-3.88-3.93,0-1.62,1.18-3.91,3.94-3.91h0ZM185.68,38.59c.9,0,2.76-.52,2.76-3.43,0-2.4-1.46-3.69-3.04-3.69-1.67,0-2.92,1.1-2.92,3.29,0,2.33,1.4,3.83,3.2,3.83Z"/>
      <path class="st1" d="M191.14,34.17c0-1.56,0-1.84-.02-2.16-.02-.34-.1-.5-.43-.57-.08-.02-.25-.03-.34-.03-.04,0-.08-.02-.08-.06,0-.06.05-.08.16-.08h.72l.41.02h2.46c.19,0,.35,0,.44-.04.06-.02.1-.06.14-.06s.06.04.06.09c0,.07-.05.19-.08.47,0,.1-.03.54-.05.66,0,.05-.03.11-.08.11s-.07-.05-.07-.12c0-.08-.03-.25-.09-.38s-.29-.31-.68-.32l-1.54-.03c-.06,0-.09.03-.09.11v2.76c0,.06,0,.09.07.09h1.28c.17,0,.31,0,.45-.02.24-.02.37-.05.46-.18.04-.05.07-.1.11-.1s.05.03.05.08c0,.06-.05.23-.08.56-.02.2-.04.6-.04.67,0,.09,0,.19-.07.19-.05,0-.07-.04-.07-.09,0-.1-.02-.24-.06-.36-.05-.14-.21-.32-.52-.36-.25-.03-1.34-.03-1.51-.03-.05,0-.07.02-.07.09v.85c0,.96,0,1.75.05,2.17.03.29.09.51.39.55.14.02.36.04.45.04.06,0,.08.03.08.06,0,.05-.05.08-.16.08-.55,0-1.18-.03-1.23-.03s-.68.03-.98.03c-.11,0-.16-.02-.16-.08,0-.03.02-.06.08-.06.09,0,.21-.02.3-.04.2-.04.25-.26.29-.55.05-.42.05-1.21.05-2.17v-1.76h0Z"/>
      <path class="st1" d="M198.93,34.17c0-1.56,0-1.84-.02-2.16-.02-.34-.1-.5-.43-.57-.08-.02-.25-.03-.34-.03-.04,0-.08-.02-.08-.06,0-.06.05-.08.16-.08.45,0,1.06.03,1.15.03s.69-.03.99-.03c.11,0,.16.02.16.08,0,.04-.04.06-.08.06-.07,0-.13,0-.25.03-.27.04-.35.22-.37.57-.02.32-.02.6-.02,2.16v1.4c0,1.44.32,2.06.75,2.47.49.46.94.55,1.51.55.61,0,1.21-.29,1.57-.72.46-.57.58-1.42.58-2.45v-1.25c0-1.56,0-1.84-.02-2.16-.02-.34-.1-.5-.43-.57-.08-.02-.25-.03-.34-.03-.04,0-.08-.02-.08-.06,0-.06.05-.08.16-.08.45,0,1,.03,1.06.03.07,0,.54-.03.84-.03.11,0,.16.02.16.08,0,.04-.04.06-.08.06-.07,0-.13,0-.25.03-.27.06-.35.22-.37.57-.02.32-.02.6-.02,2.16v1.07c0,1.08-.12,2.28-.92,2.99-.72.64-1.47.74-2.06.74-.34,0-1.35-.04-2.06-.71-.49-.47-.87-1.17-.87-2.63v-1.46h0Z"/>
      <path class="st1" d="M209.82,35.93c0,.96,0,1.75.05,2.17.03.29.09.51.39.55.14.02.36.04.45.04.06,0,.08.03.08.06,0,.05-.05.08-.16.08-.55,0-1.18-.03-1.23-.03s-.68.03-.98.03c-.11,0-.16-.02-.16-.08,0-.03.02-.06.08-.06.09,0,.21-.02.3-.04.2-.04.25-.26.29-.55.05-.42.05-1.21.05-2.17v-4.23l-1.48.02c-.62,0-.86.08-1.02.32-.11.17-.14.24-.17.31-.03.08-.06.1-.1.1-.03,0-.05-.03-.05-.09,0-.1.2-.96.22-1.04.02-.06.06-.19.1-.19.07,0,.17.1.44.12.29.03.67.05.79.05h3.75c.32,0,.55-.02.71-.05.15-.02.24-.05.28-.05.05,0,.05.06.05.12,0,.3-.03.99-.03,1.1,0,.09-.03.13-.07.13-.05,0-.07-.03-.08-.17v-.11c-.04-.3-.28-.53-1.24-.55l-1.26-.02s0,4.23,0,4.23Z"/>
      <path class="st1" d="M215.5,31.52c.12-.33.16-.39.22-.39s.1.05.22.36c.15.38,1.72,4.51,2.33,6.03.36.89.65,1.05.86,1.11.15.05.3.06.4.06.06,0,.1,0,.1.06s-.09.08-.2.08c-.15,0-.88,0-1.57-.02-.19,0-.3,0-.3-.07,0-.04.03-.06.07-.07.06-.02.12-.11.06-.27l-.93-2.46s-.04-.06-.09-.06h-2.15s-.08.03-.1.08l-.6,1.77c-.09.25-.14.49-.14.67,0,.2.21.29.38.29h.1c.07,0,.1.02.1.06,0,.06-.06.08-.15.08-.24,0-.67-.03-.78-.03s-.66.03-1.13.03c-.13,0-.19-.02-.19-.08,0-.04.04-.06.09-.06.07,0,.21,0,.29-.02.46-.06.66-.44.84-.94l2.27-6.21h0ZM216.54,35.52s.05-.03.04-.07l-.95-2.7c-.05-.15-.1-.15-.15,0l-.88,2.7s0,.07.03.07h1.91Z"/>
      <path class="st1" d="M227.07,35.93c0,.96,0,1.75.05,2.17.03.29.09.51.39.55.14.02.36.04.45.04.06,0,.08.03.08.06,0,.05-.05.08-.16.08-.55,0-1.18-.03-1.23-.03s-.68.03-.98.03c-.11,0-.16-.02-.16-.08,0-.03.02-.06.08-.06.09,0,.21-.02.3-.04.2-.04.25-.26.29-.55.05-.42.05-1.21.05-2.17v-1.05s-.03-.06-.06-.06h-4.24s-.06,0-.06.06v1.05c0,.96,0,1.75.05,2.17.03.29.09.51.39.55.14.02.36.04.45.04.06,0,.08.03.08.06,0,.05-.05.08-.16.08-.55,0-1.18-.03-1.23-.03s-.68.03-.98.03c-.11,0-.16-.02-.16-.08,0-.03.02-.06.08-.06.09,0,.21-.02.3-.04.2-.04.25-.26.29-.55.05-.42.05-1.21.05-2.17v-1.76c0-1.56,0-1.84-.02-2.16-.02-.34-.1-.5-.43-.57-.08-.02-.25-.03-.34-.03-.04,0-.08-.02-.08-.06,0-.06.05-.08.16-.08.45,0,1.08.03,1.13.03s.68-.03.98-.03c.11,0,.16.02.16.08,0,.04-.04.06-.08.06-.07,0-.13,0-.25.03-.27.05-.35.22-.37.57-.02.32-.02.6-.02,2.16v.21s.03.06.06.06h4.24s.06,0,.06-.06v-.21c0-1.56,0-1.84-.02-2.16-.02-.34-.1-.5-.43-.57-.08-.02-.25-.03-.34-.03-.04,0-.08-.02-.08-.06,0-.06.05-.08.16-.08.45,0,1.08.03,1.13.03s.68-.03.98-.03c.11,0,.16.02.16.08,0,.04-.04.06-.08.06-.07,0-.13,0-.25.03-.27.05-.35.22-.37.57-.02.32-.02.6-.02,2.16v1.76h0Z"/>
    </g>
    <rect class="st1" x="87.86" y="27.53" width="140.18" height=".52"/>
  </g>
  <path class="st1" d="M79.14,9.42c-1.29.73-2.72,1.65-3.56,3.38-1.75,3.64-2.09,9.51-8.64,10.54-1.15-3.41-2.7-7.27-4.09-10.13-.88-1.85-1.6-3.48-2.47-4.28-1.35-.01-2.97-.03-4.26-.03-7.19-1.31-12.82-1.65-12.87-3.56-.03-1.28,2.67-2.98,2.67-4.03-.01-1.32-3.85-1.32-5.26-1.32s-4.61.09-4.67,1.28c-.06,1.23,2.62,2.51,2.6,4.16-.01,1.91-8.49,2.6-12.9,3.48-1.5,0-2.97.04-4.17.06-.88.81-1.29,1.68-1.94,3.31-6.51.1-18.46-.84-19.41,4.64-1.38,7.86,6.16,14.05,14.49,17.72,1.13,2.18,3.44,4.23,5.88,6.13,0,.32-.01.29,0,.63.73.62,3.17,1.06,6.6,1.32s22.78.53,29.41-.12c2.67-.26,4.34-.73,4.92-1.29.03-.18.03-.41.03-.66,1-1,4.38-2.97,6.01-6.66,12.07-3.81,9.11-14.21,13.67-19.94,1.68-2.1,3.47-3.09,6.69-4.81-2.1.01-5.67.16-8.71.16ZM13.66,30.63c-5.22-1.95-10.17-8.79-9.36-12.71.57-2.81,8.19-2.44,13.74-2.47-2.15,4.47-4.22,10.2-4.38,15.18ZM54.11,18.56h-1.98v14.62l-4.7,5.44h-13.01l-4.19-4.63v-15.43h-2.42v-6.76h12.49v6.69h-1.4v12.27h5.03v-12.34h-1.79v-6.61h11.98v6.76Z"/>
  <g>
    <path class="st0" d="M99.29,20.91c-.55.27-1.64.55-3.04.55-3.24,0-5.69-2.05-5.69-5.82s2.44-6.04,6.01-6.04c1.43,0,2.34.31,2.73.51l-.36,1.21c-.56-.27-1.37-.48-2.32-.48-2.7,0-4.49,1.72-4.49,4.75,0,2.82,1.62,4.63,4.42,4.63.9,0,1.83-.19,2.42-.48l.31,1.18Z"/>
    <path class="st0" d="M108.39,17.08c0,3.06-2.12,4.39-4.11,4.39-2.24,0-3.96-1.64-3.96-4.25,0-2.77,1.81-4.39,4.1-4.39s3.98,1.72,3.98,4.25ZM101.83,17.17c0,1.81,1.04,3.18,2.51,3.18s2.51-1.35,2.51-3.21c0-1.4-.7-3.18-2.48-3.18s-2.54,1.64-2.54,3.21Z"/>
    <path class="st0" d="M110.28,15.26c0-.85-.02-1.55-.07-2.24h1.31l.07,1.33h.05c.46-.79,1.23-1.52,2.6-1.52,1.13,0,1.98.68,2.34,1.66h.03c.26-.46.58-.82.92-1.08.5-.38,1.04-.58,1.83-.58,1.09,0,2.71.72,2.71,3.59v4.87h-1.47v-4.68c0-1.59-.58-2.54-1.79-2.54-.85,0-1.52.63-1.78,1.37-.07.2-.12.48-.12.75v5.11h-1.47v-4.95c0-1.31-.58-2.27-1.72-2.27-.94,0-1.62.75-1.86,1.5-.09.22-.12.48-.12.73v4.99h-1.47v-6.03Z"/>
    <path class="st0" d="M124.52,15.72c0-1.06-.03-1.91-.07-2.7h1.35l.07,1.42h.03c.61-1.01,1.59-1.61,2.94-1.61,2,0,3.5,1.69,3.5,4.2,0,2.97-1.81,4.44-3.76,4.44-1.09,0-2.05-.48-2.54-1.3h-.03v4.49h-1.49v-8.95ZM126,17.92c0,.22.03.43.07.61.27,1.04,1.18,1.76,2.25,1.76,1.59,0,2.51-1.3,2.51-3.19,0-1.66-.87-3.07-2.46-3.07-1.02,0-1.98.73-2.27,1.86-.05.19-.1.41-.1.61v1.42Z"/>
    <path class="st0" d="M141.15,19.03c0,.85.02,1.61.07,2.25h-1.33l-.08-1.35h-.03c-.39.67-1.26,1.54-2.73,1.54-1.3,0-2.85-.72-2.85-3.62v-4.83h1.5v4.58c0,1.57.48,2.63,1.84,2.63,1.01,0,1.71-.7,1.98-1.37.09-.22.14-.5.14-.77v-5.07h1.5v6.01Z"/>
    <path class="st0" d="M145.45,10.65v2.37h2.15v1.14h-2.15v4.46c0,1.02.29,1.61,1.13,1.61.39,0,.68-.05.87-.1l.07,1.13c-.29.12-.75.21-1.33.21-.7,0-1.26-.22-1.62-.63-.43-.44-.58-1.18-.58-2.15v-4.51h-1.28v-1.14h1.28v-1.98l1.47-.39Z"/>
    <path class="st0" d="M150.02,17.43c.03,2.03,1.33,2.87,2.83,2.87,1.08,0,1.72-.19,2.29-.43l.26,1.08c-.53.24-1.43.51-2.75.51-2.54,0-4.06-1.67-4.06-4.17s1.47-4.46,3.88-4.46c2.7,0,3.41,2.37,3.41,3.89,0,.31-.03.55-.05.7h-5.81ZM154.43,16.35c.02-.96-.39-2.44-2.08-2.44-1.52,0-2.19,1.4-2.31,2.44h4.39Z"/>
    <path class="st0" d="M157.74,15.6c0-.97-.02-1.81-.07-2.58h1.31l.05,1.62h.07c.38-1.11,1.28-1.81,2.29-1.81.17,0,.29.02.43.05v1.42c-.15-.03-.31-.05-.51-.05-1.06,0-1.81.8-2.01,1.93-.03.21-.07.44-.07.7v4.41h-1.49v-5.69Z"/>
    <path class="st0" d="M175.75,20.77c-.67.24-1.98.63-3.53.63-1.74,0-3.18-.44-4.3-1.52-.99-.96-1.6-2.49-1.6-4.29.02-3.43,2.37-5.94,6.23-5.94,1.33,0,2.37.29,2.87.53l-.36,1.21c-.61-.27-1.38-.5-2.54-.5-2.8,0-4.63,1.74-4.63,4.63s1.76,4.65,4.44,4.65c.97,0,1.64-.14,1.98-.31v-3.43h-2.34v-1.2h3.79v5.53Z"/>
    <path class="st0" d="M177.97,15.6c0-.97-.02-1.81-.07-2.58h1.31l.05,1.62h.07c.38-1.11,1.28-1.81,2.29-1.81.17,0,.29.02.43.05v1.42c-.15-.03-.31-.05-.51-.05-1.06,0-1.81.8-2.01,1.93-.03.21-.07.44-.07.7v4.41h-1.49v-5.69Z"/>
    <path class="st0" d="M188.04,21.28l-.12-1.04h-.05c-.46.65-1.35,1.23-2.53,1.23-1.67,0-2.53-1.18-2.53-2.37,0-2,1.78-3.09,4.97-3.07v-.17c0-.68-.19-1.91-1.88-1.91-.77,0-1.57.24-2.15.61l-.34-.99c.68-.44,1.67-.73,2.71-.73,2.53,0,3.14,1.72,3.14,3.38v3.09c0,.72.03,1.42.14,1.98h-1.37ZM187.82,17.07c-1.64-.03-3.5.26-3.5,1.86,0,.97.65,1.44,1.42,1.44,1.08,0,1.76-.68,2-1.38.05-.15.09-.32.09-.48v-1.43Z"/>
    <path class="st0" d="M191.69,15.72c0-1.06-.03-1.91-.07-2.7h1.35l.07,1.42h.03c.61-1.01,1.59-1.61,2.94-1.61,2,0,3.5,1.69,3.5,4.2,0,2.97-1.81,4.44-3.76,4.44-1.09,0-2.05-.48-2.54-1.3h-.03v4.49h-1.49v-8.95ZM193.18,17.92c0,.22.03.43.07.61.27,1.04,1.18,1.76,2.25,1.76,1.59,0,2.51-1.3,2.51-3.19,0-1.66-.87-3.07-2.46-3.07-1.02,0-1.98.73-2.27,1.86-.05.19-.1.41-.1.61v1.42Z"/>
    <path class="st0" d="M201.41,9.16h1.5v5.16h.03c.24-.43.61-.8,1.08-1.06.44-.26.97-.43,1.54-.43,1.11,0,2.88.68,2.88,3.53v4.92h-1.5v-4.75c0-1.33-.5-2.46-1.91-2.46-.97,0-1.74.68-2.02,1.5-.09.21-.1.43-.1.72v4.99h-1.5v-12.12Z"/>
    <path class="st0" d="M212.56,10.7c.02.51-.36.92-.96.92-.53,0-.91-.41-.91-.92s.39-.94.94-.94.92.41.92.94ZM210.88,21.28v-8.26h1.5v8.26h-1.5Z"/>
    <path class="st0" d="M220.77,20.98c-.39.21-1.26.48-2.37.48-2.49,0-4.12-1.69-4.12-4.22s1.74-4.39,4.44-4.39c.89,0,1.67.22,2.08.43l-.34,1.16c-.36-.21-.92-.39-1.74-.39-1.89,0-2.92,1.4-2.92,3.12,0,1.91,1.23,3.09,2.87,3.09.85,0,1.42-.22,1.84-.41l.26,1.13Z"/>
    <path class="st0" d="M222.32,19.75c.44.29,1.23.6,1.98.6,1.09,0,1.6-.55,1.6-1.23,0-.72-.43-1.11-1.54-1.52-1.49-.53-2.19-1.35-2.19-2.34,0-1.33,1.08-2.42,2.85-2.42.84,0,1.57.24,2.03.51l-.38,1.09c-.33-.21-.92-.48-1.69-.48-.89,0-1.38.51-1.38,1.13,0,.68.5.99,1.57,1.4,1.43.55,2.17,1.26,2.17,2.49,0,1.45-1.13,2.48-3.09,2.48-.91,0-1.74-.22-2.32-.56l.38-1.15Z"/>
  </g>
</svg>